<svg width="65" height="65" viewBox="0 0 65 65" fill="none" xmlns="http://www.w3.org/2000/svg">
  <g clip-path="url(#clip0_1_656)">
    <path
      d="M65.2539 23.8672C65.2539 37.7474 65.2539 51.5006 65.2539 65.2539C43.5872 65.2539 21.9206 65.2539 0.253906 65.2539C0.253906 43.5872 0.253906 21.9206 0.253906 0.253906C21.9206 0.253906 43.5872 0.253906 65.2539 0.253906C65.2539 8.08268 65.2539 15.9115 65.2539 23.8672ZM37.8321 60.3022C37.8321 58.9233 37.8321 57.5444 37.8321 56.1512C38.9317 56.1512 39.8551 56.1512 40.7651 56.1512C41.6987 58.8145 43.2807 60.0515 45.4029 60.203C48.8109 60.4463 50.2955 58.6054 51.1956 56.1134C52.1424 56.1134 53.1169 56.1708 54.0822 56.1008C55.8202 55.9748 57.6429 56.0568 59.2681 55.5411C62.3883 54.5509 64.4442 51.3523 64.4063 47.9463C63.268 47.9463 62.1214 47.9463 60.8505 47.9463C61.7992 45.5688 62.6633 43.3735 63.5508 41.1877C64.3476 39.2252 64.3595 39.2286 62.5351 38.3774C62.4746 38.3492 62.3778 38.3986 62.1427 38.4375C60.9004 41.5136 59.6272 44.6663 58.354 47.8189C58.266 47.7953 58.178 47.7718 58.09 47.7482C58.09 43.7895 58.09 39.8308 58.09 35.8476C57.3828 35.8083 56.7732 35.7745 56.0847 35.7363C56.0847 30.3027 56.0847 24.9871 56.0847 19.54C54.7146 19.54 53.4267 19.54 52.0164 19.54C52.0164 18.1225 52.0164 16.8342 52.0164 15.5854C51.2773 15.5854 50.6706 15.5854 49.9807 15.5854C49.9807 16.9375 49.9807 18.1935 49.9807 19.4749C49.2851 19.4749 48.6791 19.4749 47.9456 19.4749C47.9456 17.4359 47.9456 15.4702 47.9456 13.511C47.2372 13.511 46.6589 13.511 45.9519 13.511C45.9519 15.5271 45.9519 17.4927 45.9519 19.4704C45.2141 19.4704 44.6079 19.4704 43.875 19.4704C43.875 18.1038 43.875 16.8143 43.875 15.5469C43.1663 15.5469 42.5879 15.5469 41.8791 15.5469C41.8791 16.8883 41.8791 18.1763 41.8791 19.5918C40.464 19.5918 39.1782 19.5918 37.7652 19.5918C37.7652 23.7165 37.7652 27.7095 37.7652 31.7864C36.3786 31.7864 35.1234 31.7864 33.7198 31.7864C33.7198 33.3944 33.7198 34.9175 33.7198 36.7799C31.4186 33.8648 28.635 32.2506 25.5681 31.0307C24.9768 30.7955 24.4891 30.2997 24.1443 30.0579C25.2933 28.9718 26.2129 28.0742 27.1687 27.2169C27.4423 26.9715 27.8098 26.7102 28.1528 26.6821C30.3399 26.5029 31.7361 25.0396 31.7381 22.8401C31.7396 21.1095 31.7384 19.3789 31.7384 17.6483C31.8381 17.7205 31.9379 17.7927 32.0376 17.8648C32.6111 17.3166 33.6328 16.7967 33.6696 16.2146C33.7613 14.7619 34.2579 13.1762 33.2464 11.8191C33.0938 11.6144 32.7026 11.6049 32.4849 11.4275C32.1245 11.1339 31.6994 10.8334 31.5074 10.4363C30.991 9.36863 30.7256 8.16019 30.1079 7.16437C27.5766 3.08355 23.9346 1.19083 19.0446 1.21264C13.6786 1.23658 8.78309 5.43737 7.63931 10.3158C7.47794 11.004 7.27482 11.312 6.53322 11.5351C6.02806 11.6871 5.59141 12.464 5.37325 13.0536C5.18045 13.5747 5.332 14.2233 5.33199 14.8156C5.33196 17.0233 5.33203 17.0233 7.36319 17.7594C7.36319 19.5232 7.35639 21.2989 7.36504 23.0746C7.3743 24.9779 8.90952 26.5307 10.81 26.687C11.2185 26.7206 11.65 27.0349 11.9829 27.3221C12.9241 28.1339 13.8196 28.9988 14.9476 30.0409C14.6164 30.2769 14.1383 30.7972 13.5494 31.0087C8.72544 32.7407 5.13882 35.858 2.87694 40.4534C1.4629 43.3263 1.14839 46.4 1.24671 49.5756C1.36915 53.5305 3.20606 56.4386 6.42099 58.5368C7.12151 58.994 7.40851 59.4314 7.37688 60.2359C7.32587 61.5331 7.36318 62.8337 7.36318 64.1622C17.5772 64.1622 27.6612 64.1622 37.8321 64.1622C37.8321 62.9104 37.8321 61.733 37.8321 60.3022Z"
      fill="none" />
    <path
      d="M37.8318 60.429C37.8318 61.733 37.8318 62.9104 37.8318 64.1623C27.6609 64.1623 17.5769 64.1623 7.36287 64.1623C7.36287 62.8338 7.32557 61.5331 7.37658 60.236C7.40821 59.4315 7.12121 58.9941 6.42069 58.5369C3.20576 56.4387 1.36885 53.5305 1.2464 49.5757C1.14809 46.4 1.4626 43.3263 2.87663 40.4535C5.13852 35.8581 8.72514 32.7407 13.5491 31.0088C14.138 30.7973 14.6161 30.2769 14.9473 30.041C13.8193 28.9988 12.9238 28.134 11.9826 27.3221C11.6497 27.035 11.2182 26.7206 10.8097 26.687C8.90922 26.5308 7.374 24.978 7.36473 23.0747C7.35609 21.299 7.36289 19.5232 7.36289 17.7595C5.33173 17.0234 5.33166 17.0234 5.33169 14.8157C5.3317 14.2234 5.18015 13.5747 5.37295 13.0537C5.5911 12.464 6.02776 11.6872 6.53292 11.5352C7.27452 11.312 7.47764 11.0041 7.63901 10.3158C8.78279 5.43743 13.6783 1.23665 19.0443 1.21271C23.9343 1.1909 27.5762 3.08362 30.1076 7.16443C30.7253 8.16026 30.9907 9.3687 31.5071 10.4364C31.6991 10.8335 32.1242 11.134 32.4846 11.4276C32.7022 11.6049 33.0935 11.6145 33.2461 11.8192C34.2576 13.1762 33.761 14.762 33.6693 16.2147C33.6325 16.7968 32.6107 17.3167 32.0373 17.8649C31.9376 17.7927 31.8378 17.7205 31.7381 17.6484C31.7381 19.379 31.7393 21.1096 31.7378 22.8402C31.7358 25.0397 30.3396 26.5029 28.1525 26.6822C27.8095 26.7103 27.442 26.9715 27.1684 27.217C26.2126 28.0742 25.293 28.9718 24.144 30.0579C24.4888 30.2997 24.9765 30.7956 25.5678 31.0308C28.6347 32.2507 31.4183 33.8648 33.7195 36.78C33.7195 34.9175 33.7195 33.3945 33.7195 31.7865C35.1231 31.7865 36.3783 31.7865 37.7649 31.7865C37.7649 27.7096 37.7649 23.7165 37.7649 19.5919C39.1779 19.5919 40.4637 19.5919 41.8788 19.5919C41.8788 18.1764 41.8788 16.8884 41.8788 15.547C42.5875 15.547 43.166 15.547 43.8746 15.547C43.8746 16.8144 43.8746 18.1039 43.8746 19.4704C44.6076 19.4704 45.2138 19.4704 45.9516 19.4704C45.9516 17.4928 45.9516 15.5271 45.9516 13.511C46.6586 13.511 47.2369 13.511 47.9453 13.511C47.9453 15.4703 47.9453 17.436 47.9453 19.4749C48.6788 19.4749 49.2848 19.4749 49.9804 19.4749C49.9804 18.1935 49.9804 16.9375 49.9804 15.5855C50.6702 15.5855 51.277 15.5855 52.0161 15.5855C52.0161 16.8342 52.0161 18.1225 52.0161 19.5401C53.4264 19.5401 54.7143 19.5401 56.0844 19.5401C56.0844 24.9872 56.0844 30.3028 56.0844 35.7364C56.7729 35.7746 57.3825 35.8084 58.0897 35.8476C58.0897 39.8309 58.0897 43.7896 58.0897 47.7483C58.1777 47.7718 58.2657 47.7954 58.3537 47.8189C59.6269 44.6663 60.9001 41.5137 62.1424 38.4375C62.3775 38.3986 62.4743 38.3492 62.5348 38.3775C64.3592 39.2286 64.3473 39.2252 63.5504 41.1878C62.6629 43.3735 61.7988 45.5688 60.8502 47.9464C62.1211 47.9464 63.2677 47.9464 64.406 47.9464C64.4439 51.3524 62.3879 54.551 59.2677 55.5411C57.6425 56.0569 55.8199 55.9748 54.0819 56.1009C53.1166 56.1709 52.1421 56.1134 51.1953 56.1134C50.2952 58.6054 48.8106 60.4464 45.4026 60.2031C43.2804 60.0516 41.6984 58.8146 40.7648 56.1513C39.8548 56.1513 38.9314 56.1513 37.8318 56.1513C37.8318 57.5444 37.8318 58.9234 37.8318 60.429ZM3.55445 49.9098C3.66886 51.6069 4.2703 53.1166 5.32176 54.4462C8.22679 58.1198 12.2566 58.285 16.5483 58.0895C16.2322 57.2864 17.1156 56.2408 15.8399 55.8781C14.97 55.6308 14.0472 55.5725 13.1727 55.3378C10.5028 54.6214 8.20947 53.2889 7.64364 50.3914C7.24044 48.3268 7.37548 46.157 7.26876 44.0025C8.1002 44.0025 8.70586 44.0025 9.39444 44.0025C9.39444 45.1701 9.33787 46.2657 9.40505 47.3536C9.60652 50.6162 10.8646 52.7327 14.4017 53.1721C14.4017 46.5608 14.4017 39.9474 14.4017 33.2918C11.3771 34.149 9.05578 35.9458 7.13113 38.226C4.35017 41.5208 3.1777 45.3775 3.55445 49.9098ZM47.9933 35.3525C48.1088 35.4963 48.2225 35.7638 48.34 35.7654C50.225 35.7916 52.1104 35.7839 54.0011 35.7839C54.0011 30.9865 54.0011 26.3231 54.0011 21.668C49.2565 21.668 44.593 21.668 39.9567 21.668C39.9567 25.0659 39.9567 28.3772 39.9567 31.8149C42.6855 31.8149 45.3222 31.8149 47.9889 31.8149C47.9889 32.9991 47.9889 34.0546 47.9933 35.3525ZM30.8415 41.1251C31.7498 43.356 32.658 45.5869 33.5662 47.8178C33.769 45.6337 33.7845 43.5205 33.7533 41.4079C33.7482 41.0661 33.6146 40.6647 33.4045 40.3976C32.2986 38.9914 31.2646 37.4994 29.9842 36.2672C28.5165 34.8548 26.7394 33.8355 24.6882 33.4129C24.6882 40.3497 24.6882 47.1903 24.6882 54.0254C26.4998 54.1801 27.6263 55.1945 27.6756 56.6669C27.7535 58.9953 27.0081 59.9111 24.7135 60.3117C24.7135 60.9236 24.7135 61.5317 24.7135 62.1101C26.4216 62.1101 28.0436 62.1101 29.7066 62.1101C29.7066 59.5631 29.7545 57.1113 29.6744 54.6637C29.6533 54.0169 29.3357 53.3222 28.9839 52.7552C28.0834 51.3041 27.4859 49.792 27.4391 47.9363C28.6962 47.9363 29.8097 47.9363 31.0561 47.9363C30.1055 45.561 29.2198 43.3362 28.3249 41.1152C27.5458 39.1816 27.541 39.1832 29.4487 38.3682C29.4807 38.3545 29.5285 38.3776 29.7716 38.4131C30.07 39.1954 30.4053 40.0744 30.8415 41.1251ZM14.885 17.5197C14.4366 17.5197 13.9882 17.5197 13.4585 17.5197C13.4585 19.8198 13.375 21.9709 13.4828 24.1123C13.5842 26.1278 14.4053 27.1869 16.471 27.4666C18.4834 27.739 20.5649 27.6355 22.6061 27.5209C24.5436 27.412 25.476 26.0292 25.5984 24.2766C25.7528 22.0639 25.6356 19.8322 25.6356 17.5197C22.0423 17.5197 18.587 17.5197 14.885 17.5197ZM36.7379 47.9881C39.7717 47.9881 42.8055 47.9881 45.8846 47.9881C45.8846 43.2 45.8846 38.5324 45.8846 33.854C42.498 33.854 39.184 33.854 35.8012 33.854C35.8012 38.3743 35.7901 42.8106 35.8308 47.2464C35.8331 47.4954 36.2628 47.7405 36.7379 47.9881ZM39.2282 50.0197C36.2846 50.0197 33.3411 50.0197 30.2546 50.0197C30.9693 51.8275 32.1263 53.1617 33.8354 53.5035C35.9824 53.933 38.2193 53.9258 40.4205 54.0519C40.6524 54.0652 40.9678 53.7522 41.1379 53.5144C41.8728 52.4867 42.7699 51.9302 44.1081 52.0282C45.4954 52.1297 46.901 51.9815 48.2883 52.0826C48.9 52.1271 49.8136 52.3542 50.0261 52.78C50.828 54.3865 52.1971 54.1021 53.4992 54.0702C54.7076 54.0405 55.931 54.0119 57.1167 53.8047C59.2701 53.4284 60.7242 52.1247 61.656 50.0197C54.1726 50.0197 46.8274 50.0197 39.2282 50.0197ZM16.5037 50.1447C16.5037 51.3519 16.5037 52.5591 16.5037 54.0923C17.5853 53.304 18.3482 52.4408 19.2889 52.1469C20.2742 51.8392 21.4303 52.0781 22.5973 52.0781C22.5973 49.9267 22.3821 47.9216 22.6478 45.9824C23.044 43.0917 20.947 41.6987 19.5265 39.7185C18.879 40.5701 18.4146 41.3816 17.7623 41.9927C16.7242 42.9651 16.4007 44.0836 16.4837 45.4615C16.5724 46.9332 16.5037 48.4143 16.5037 50.1447ZM56.1129 43.7983C56.1129 41.8293 56.1129 39.8603 56.1129 37.9314C53.2995 37.9314 50.6626 37.9314 48.0534 37.9314C48.0534 41.3142 48.0534 44.5974 48.0534 47.9114C50.7555 47.9114 53.3918 47.9114 56.1129 47.9114C56.1129 46.5747 56.1129 45.3132 56.1129 43.7983ZM19.9313 15.4883C23.8489 15.4883 27.7665 15.4883 31.6856 15.4883C31.6856 14.7404 31.6856 14.1622 31.6856 13.521C23.5781 13.521 15.5227 13.521 7.43933 13.521C7.43933 14.1929 7.43933 14.7985 7.43933 15.4883C11.569 15.4883 15.6232 15.4883 19.9313 15.4883ZM9.99199 10.4511C9.97802 10.757 9.96406 11.063 9.95172 11.3333C12.2017 11.3333 14.3271 11.3333 16.4214 11.3333C16.4214 8.86461 16.4214 6.48923 16.4214 3.94205C13.2808 5.17862 11.1072 7.13179 9.99199 10.4511ZM23.5348 11.4256C25.3909 11.4256 27.247 11.4256 29.0933 11.4256C29.3405 8.77111 25.5647 4.43563 22.6019 4.11443C22.6019 6.39642 22.5875 8.66741 22.6316 10.9373C22.6348 11.104 23.0609 11.2626 23.5348 11.4256ZM33.431 55.8612C32.8989 55.6979 32.3669 55.5347 31.8183 55.3664C31.8183 57.6981 31.8183 59.9145 31.8183 62.1167C33.182 62.1167 34.463 62.1167 35.7061 62.1167C35.7061 60.0661 35.7061 58.107 35.7061 56.2369C34.9496 56.1085 34.2985 55.9979 33.431 55.8612ZM18.5363 34.1525C18.8514 34.6224 19.1665 35.0923 19.5594 35.6782C20.2147 34.6816 20.7014 33.7013 21.4097 32.9227C22.369 31.8683 22.3487 30.8713 21.6458 29.7474C20.224 29.7474 18.7967 29.7474 17.4831 29.7474C16.5918 30.9559 16.8498 31.9833 17.7531 32.9631C18.0283 33.2615 18.1916 33.6631 18.5363 34.1525ZM18.7223 55.5616C18.6472 56.3998 18.5721 57.238 18.4909 58.1445C20.0685 58.1445 21.4156 58.1446 22.7627 58.1445C23.1847 58.1444 23.6592 58.2664 24.0162 58.1139C24.5185 57.8993 24.9337 57.4809 25.3861 57.1496C24.9472 56.8047 24.5517 56.3569 24.0556 56.1476C23.6668 55.9836 23.1535 56.1147 22.6956 56.1147C22.7754 56.0104 22.8551 55.9061 22.9349 55.8018C22.4224 55.2389 21.9873 54.3516 21.3754 54.2056C20.7799 54.0636 19.9968 54.6663 19.3107 54.9746C19.13 55.0559 19.0036 55.2578 18.7223 55.5616ZM48.2679 56.717C49.309 54.9163 48.8415 54.0881 46.7796 54.0825C46.0649 54.0806 45.3492 54.058 44.6357 54.0878C43.2518 54.1458 42.7612 55.0386 43.3729 56.2955C44.3144 58.23 47.0067 58.5214 48.2679 56.717ZM20.566 7.2372C20.566 6.0274 20.566 4.81761 20.566 3.61018C19.8177 3.61018 19.2399 3.61018 18.5989 3.61018C18.5989 6.21334 18.5989 8.76763 18.5989 11.3497C19.2703 11.3497 19.876 11.3497 20.566 11.3497C20.566 10.0137 20.566 8.75199 20.566 7.2372ZM22.1378 62.2025C22.345 61.5861 22.5522 60.9698 22.7911 60.2589C20.4889 60.2589 18.5253 60.2589 16.5542 60.2589C16.5542 60.9206 16.5542 61.4989 16.5542 62.2063C18.3677 62.2063 20.1326 62.2063 22.1378 62.2025ZM11.3519 60.176C10.7437 60.1083 10.1355 60.0406 9.49066 59.9689C9.49066 60.7107 9.49066 61.4343 9.49066 62.107C11.2058 62.107 12.8232 62.107 14.4081 62.107C14.4081 61.4295 14.4081 60.854 14.4081 60.176C13.4292 60.176 12.511 60.176 11.3519 60.176ZM27.7619 20.8963C27.7619 22.0388 27.7619 23.1813 27.7619 24.3632C28.8336 24.3425 29.3428 23.7813 29.4393 22.8555C29.5518 21.7767 29.1448 21.0113 27.7619 20.8963ZM9.73497 23.3099C10.1945 23.7245 10.654 24.1392 11.3365 24.755C11.3365 23.1453 11.3365 22.0062 11.3365 20.8536C9.84678 21.1292 9.64031 21.4212 9.73497 23.3099ZM16.5037 36.802C16.5037 37.691 16.5037 38.58 16.5037 39.7151C17.1443 38.9406 17.5843 38.4086 18.0816 37.8073C17.621 37.1121 17.1586 36.4141 16.5037 35.4256C16.5037 36.0412 16.5037 36.3148 16.5037 36.802ZM22.5973 37.4656C22.5973 36.8989 22.5973 36.3322 22.5973 35.3991C21.9343 36.439 21.4711 37.1656 21.0339 37.8513C21.575 38.4755 22.0134 38.9812 22.5973 39.6548C22.5973 38.8463 22.5973 38.2697 22.5973 37.4656ZM27.7074 18.3465C28.333 18.482 28.9587 18.6176 29.648 18.7669C29.648 18.3489 29.648 17.989 29.648 17.4907C28.9732 17.8294 28.0318 16.8267 27.7074 18.3465ZM10.9751 17.5236C10.4774 17.5236 9.97974 17.5236 9.45665 17.5236C9.45665 17.999 9.45665 18.36 9.45665 18.728C10.1174 18.6262 10.7168 18.534 11.4722 18.4177C11.375 18.1046 11.2882 17.8248 10.9751 17.5236Z"
      fill="#ffffff" />
    <path
      d="M3.55467 49.7987C3.17799 45.3774 4.35046 41.5207 7.13142 38.2259C9.05607 35.9457 11.3774 34.1489 14.4019 33.2917C14.4019 39.9473 14.4019 46.5607 14.4019 53.172C10.8649 52.7326 9.60681 50.6161 9.40534 47.3535C9.33816 46.2656 9.39473 45.17 9.39473 44.0024C8.70615 44.0024 8.10049 44.0024 7.26905 44.0024C7.37577 46.1569 7.24073 48.3267 7.64393 50.3914C8.20976 53.2888 10.5031 54.6213 13.173 55.3378C14.0475 55.5724 14.9703 55.6307 15.8402 55.878C17.1159 56.2407 16.2325 57.2863 16.5486 58.0895C12.2569 58.2849 8.22708 58.1197 5.32205 54.4462C4.27059 53.1165 3.66915 51.6068 3.55467 49.7987Z"
      fill="none" />
    <path
      d="M47.9909 35.2313C47.9887 34.0546 47.9887 32.999 47.9887 31.8148C45.3221 31.8148 42.6854 31.8148 39.9565 31.8148C39.9565 28.3771 39.9565 25.0659 39.9565 21.668C44.5929 21.668 49.2564 21.668 54.001 21.668C54.001 26.323 54.001 30.9864 54.001 35.7838C52.1103 35.7838 50.2249 35.7916 48.3399 35.7654C48.2224 35.7637 48.1086 35.4962 47.9909 35.2313ZM51.3851 31.7391C50.9464 31.7391 50.5077 31.7391 50.11 31.7391C50.11 32.5202 50.11 33.1217 50.11 33.6768C50.8068 33.6768 51.4075 33.6768 52.2902 33.6768C52.0281 32.9236 51.8227 32.3335 51.3851 31.7391ZM50.2184 27.7093C50.1327 28.3341 50.0471 28.9589 49.9532 29.644C50.7441 29.644 51.3452 29.644 51.986 29.644C51.986 28.979 51.986 28.3779 51.986 27.6808C51.4329 27.6808 50.9425 27.6808 50.2184 27.7093ZM47.5553 27.6808C47.0348 27.6808 46.5144 27.6808 46.0532 27.6808C46.0532 28.4722 46.0532 29.0727 46.0532 29.6089C46.7533 29.6089 47.3551 29.6089 48.0779 29.6089C47.9701 28.9006 47.8796 28.3048 47.5553 27.6808ZM41.8942 28.5766C41.9174 28.9349 41.9407 29.2931 41.962 29.6217C42.6649 29.6217 43.2662 29.6217 43.8386 29.6217C43.8386 28.9337 43.8386 28.3323 43.8386 27.6076C43.1411 27.9608 42.1555 27.0429 41.8942 28.5766ZM50.2146 25.6104C50.8165 25.6104 51.4184 25.6104 51.9934 25.6104C51.9934 24.8707 51.9934 24.2987 51.9934 23.6719C51.3353 23.6719 50.734 23.6719 50.0521 23.6719C50.0521 24.3006 50.0521 24.8724 50.2146 25.6104ZM45.9616 24.0458C45.9616 24.5663 45.9616 25.0867 45.9616 25.5479C46.7508 25.5479 47.3527 25.5479 47.8897 25.5479C47.8897 24.8454 47.8897 24.2451 47.8897 23.5233C47.1814 23.631 46.5856 23.7215 45.9616 24.0458ZM42.7949 25.6444C43.1532 25.6212 43.5115 25.5979 43.84 25.5766C43.84 24.8737 43.84 24.2724 43.84 23.7C43.152 23.7 42.5506 23.7 41.5072 23.7C42.4361 24.3134 41.0663 25.4469 42.7949 25.6444Z"
      fill="none" />
    <path
      d="M30.791 41.0392C30.4052 40.0743 30.0699 39.1953 29.7715 38.4131C29.5284 38.3775 29.4807 38.3544 29.4486 38.3681C27.541 39.1832 27.5458 39.1816 28.3248 41.1151C29.2198 43.3361 30.1054 45.5609 31.056 47.9363C29.8096 47.9363 28.6962 47.9363 27.439 47.9363C27.4858 49.7919 28.0833 51.3041 28.9839 52.7551C29.3357 53.3221 29.6532 54.0169 29.6744 54.6636C29.7544 57.1112 29.7066 59.563 29.7066 62.11C28.0435 62.11 26.4216 62.11 24.7134 62.11C24.7134 61.5316 24.7134 60.9235 24.7134 60.3117C27.0081 59.911 27.7534 58.9952 27.6755 56.6668C27.6263 55.1944 26.4998 54.18 24.6881 54.0253C24.6881 47.1902 24.6881 40.3496 24.6881 33.4128C26.7394 33.8354 28.5165 34.8547 29.9842 36.2672C31.2646 37.4993 32.2985 38.9913 33.4045 40.3975C33.6145 40.6646 33.7481 41.066 33.7532 41.4078C33.7845 43.5204 33.7689 45.6336 33.5661 47.8177C32.6579 45.5868 31.7497 43.3559 30.791 41.0392Z"
      fill="none" />
    <path
      d="M15.0087 17.5197C18.5873 17.5197 22.0426 17.5197 25.636 17.5197C25.636 19.8322 25.7532 22.0638 25.5987 24.2765C25.4764 26.0292 24.5439 27.412 22.6065 27.5208C20.5652 27.6355 18.4837 27.7389 16.4713 27.4665C14.4056 27.1869 13.5846 26.1278 13.4831 24.1123C13.3753 21.9708 13.4589 19.8198 13.4589 17.5197C13.9885 17.5197 14.4369 17.5197 15.0087 17.5197Z"
      fill="none" />
    <path
      d="M36.6164 47.9878C36.2634 47.7405 35.8336 47.4954 35.8314 47.2464C35.7906 42.8105 35.8018 38.3742 35.8018 33.854C39.1845 33.854 42.4986 33.854 45.8852 33.854C45.8852 38.5323 45.8852 43.1999 45.8852 47.9881C42.8061 47.9881 39.7723 47.9881 36.6164 47.9878ZM41.8948 42.78C41.8948 43.821 41.8948 44.862 41.8948 45.9057C42.6414 45.9057 43.2195 45.9057 43.8615 45.9057C43.8615 42.5384 43.8615 39.2222 43.8615 35.8763C43.1918 35.8763 42.586 35.8763 41.8948 35.8763C41.8948 38.1427 41.8948 40.3348 41.8948 42.78ZM39.203 35.8017C38.763 35.8017 38.3229 35.8017 37.9184 35.8017C37.9184 39.2966 37.9184 42.6015 37.9184 45.9065C38.5812 45.9065 39.1575 45.9065 39.8497 45.9065C39.8497 42.6287 39.8542 39.3997 39.8324 36.1709C39.8315 36.0486 39.5762 35.9279 39.203 35.8017Z"
      fill="none" />
    <path
      d="M39.3554 50.0197C46.8277 50.0197 54.1729 50.0197 61.6563 50.0197C60.7245 52.1247 59.2704 53.4284 57.117 53.8047C55.9313 54.0118 54.7079 54.0405 53.4995 54.0702C52.1974 54.1021 50.8283 54.3865 50.0264 52.78C49.8139 52.3542 48.9002 52.1271 48.2886 52.0826C46.9012 51.9815 45.4957 52.1297 44.1084 52.0281C42.7702 51.9302 41.873 52.4866 41.1381 53.5144C40.9681 53.7522 40.6526 54.0652 40.4208 54.0519C38.2196 53.9258 35.9827 53.9329 33.8357 53.5035C32.1266 53.1616 30.9696 51.8274 30.2549 50.0197C33.3414 50.0197 36.2849 50.0197 39.3554 50.0197Z"
      fill="none" />
    <path
      d="M16.5044 50.0179C16.5044 48.4142 16.5731 46.9331 16.4844 45.4614C16.4014 44.0835 16.725 42.965 17.763 41.9926C18.4153 41.3815 18.8797 40.57 19.5272 39.7184C20.9477 41.6986 23.0447 43.0916 22.6486 45.9823C22.3828 47.9215 22.598 49.9266 22.598 52.078C21.4311 52.078 20.275 51.839 19.2896 52.1468C18.3489 52.4407 17.586 53.3039 16.5044 54.0922C16.5044 52.559 16.5044 51.3518 16.5044 50.0179Z"
      fill="none" />
    <path
      d="M56.1136 43.9251C56.1136 45.3133 56.1136 46.5747 56.1136 47.9115C53.3925 47.9115 50.7562 47.9115 48.0541 47.9115C48.0541 44.5974 48.0541 41.3142 48.0541 37.9314C50.6633 37.9314 53.3002 37.9314 56.1136 37.9314C56.1136 39.8603 56.1136 41.8293 56.1136 43.9251ZM50.0208 40.524C50.0208 40.9625 50.0208 41.4009 50.0208 41.8077C51.4823 41.8077 52.759 41.8077 53.9873 41.8077C53.9873 41.1162 53.9873 40.5137 53.9873 39.864C52.8491 39.864 51.8045 39.8372 50.763 39.8833C50.5117 39.8944 50.2711 40.1465 50.0208 40.524ZM52.904 45.9571C53.2716 45.9357 53.6393 45.9143 53.995 45.8936C53.995 45.1996 53.995 44.5941 53.995 44.024C52.6212 44.024 51.3362 44.024 50.0852 44.024C50.0852 44.7 50.0852 45.2771 50.0852 45.9571C50.9846 45.9571 51.822 45.9571 52.904 45.9571Z"
      fill="none" />
    <path
      d="M19.8044 15.4881C15.6232 15.4881 11.569 15.4881 7.43933 15.4881C7.43933 14.7984 7.43933 14.1928 7.43933 13.5209C15.5227 13.5209 23.5781 13.5209 31.6856 13.5209C31.6856 14.1621 31.6856 14.7403 31.6856 15.4881C27.7665 15.4881 23.8489 15.4881 19.8044 15.4881Z"
      fill="none" />
    <path
      d="M10.0605 10.369C11.1079 7.13176 13.2815 5.17859 16.4221 3.94202C16.4221 6.4892 16.4221 8.86458 16.4221 11.3333C14.3278 11.3333 12.2024 11.3333 9.95239 11.3333C9.96473 11.0629 9.9787 10.757 10.0605 10.369Z"
      fill="none" />
    <path
      d="M23.4129 11.4253C23.0613 11.2625 22.6352 11.104 22.6319 10.9372C22.5878 8.66736 22.6022 6.39637 22.6022 4.11438C25.5651 4.43558 29.3409 8.77106 29.0936 11.4256C27.2473 11.4256 25.3912 11.4256 23.4129 11.4253Z"
      fill="none" />
    <path
      d="M33.5391 55.8742C34.2984 55.9978 34.9495 56.1084 35.706 56.2368C35.706 58.1069 35.706 60.0661 35.706 62.1166C34.4629 62.1166 33.1819 62.1166 31.8182 62.1166C31.8182 59.9145 31.8182 57.6981 31.8182 55.3663C32.3668 55.5346 32.8988 55.6979 33.5391 55.8742Z"
      fill="none" />
    <path
      d="M18.4715 34.0849C18.1919 33.6631 18.0286 33.2615 17.7534 32.963C16.8501 31.9832 16.5921 30.9559 17.4833 29.7473C18.797 29.7473 20.2243 29.7473 21.6461 29.7473C22.349 30.8713 22.3692 31.8682 21.41 32.9226C20.7017 33.7012 20.215 34.6815 19.5597 35.6782C19.1668 35.0923 18.8517 34.6224 18.4715 34.0849Z"
      fill="none" />
    <path
      d="M18.7876 55.4829C19.0039 55.2577 19.1304 55.0557 19.3111 54.9745C19.9971 54.6662 20.7803 54.0635 21.3757 54.2055C21.9877 54.3515 22.4228 55.2388 22.9352 55.8017C22.8555 55.906 22.7757 56.0103 22.6959 56.1146C23.1539 56.1146 23.6672 55.9835 24.0559 56.1475C24.552 56.3568 24.9476 56.8046 25.3864 57.1495C24.934 57.4808 24.5188 57.8992 24.0165 58.1138C23.6595 58.2663 23.1851 58.1443 22.7631 58.1444C21.4159 58.1445 20.0688 58.1444 18.4912 58.1444C18.5724 57.2379 18.6475 56.3997 18.7876 55.4829Z"
      fill="none" />
    <path
      d="M48.2089 56.7954C47.0073 58.5213 44.3149 58.2299 43.3735 56.2954C42.7618 55.0385 43.2523 54.1457 44.6363 54.0877C45.3497 54.0579 46.0655 54.0805 46.7801 54.0824C48.8421 54.088 49.3096 54.9162 48.2089 56.7954Z"
      fill="none" />
    <path
      d="M20.5663 7.36368C20.5663 8.75193 20.5663 10.0136 20.5663 11.3496C19.8764 11.3496 19.2706 11.3496 18.5992 11.3496C18.5992 8.76756 18.5992 6.21327 18.5992 3.61011C19.2403 3.61011 19.818 3.61011 20.5663 3.61011C20.5663 4.81755 20.5663 6.02734 20.5663 7.36368Z"
      fill="none" />
    <path
      d="M22.018 62.2043C20.133 62.2062 18.368 62.2062 16.5546 62.2062C16.5546 61.4987 16.5546 60.9205 16.5546 60.2588C18.5256 60.2588 20.4892 60.2588 22.7915 60.2588C22.5525 60.9697 22.3453 61.586 22.018 62.2043Z"
      fill="none" />
    <path
      d="M11.4723 60.176C12.511 60.176 13.4291 60.176 14.408 60.176C14.408 60.854 14.408 61.4295 14.408 62.107C12.8231 62.107 11.2057 62.107 9.4906 62.107C9.4906 61.4343 9.4906 60.7107 9.4906 59.9689C10.1354 60.0406 10.7436 60.1083 11.4723 60.176Z"
      fill="none" />
    <path
      d="M27.8672 20.8654C29.1451 21.0113 29.5521 21.7767 29.4396 22.8555C29.3431 23.7813 28.834 24.3425 27.7622 24.3632C27.7622 23.1813 27.7622 22.0388 27.8672 20.8654Z"
      fill="none" />
    <path
      d="M9.69855 23.2115C9.64061 21.4211 9.84708 21.1292 11.3368 20.8535C11.3368 22.0061 11.3368 23.1453 11.3368 24.755C10.6543 24.1391 10.1948 23.7245 9.69855 23.2115Z"
      fill="none" />
    <path
      d="M16.504 36.6952C16.504 36.3148 16.504 36.0412 16.504 35.4255C17.159 36.4141 17.6214 37.1121 18.082 37.8073C17.5847 38.4085 17.1447 38.9405 16.504 39.7151C16.504 38.58 16.504 37.691 16.504 36.6952Z"
      fill="none" />
    <path
      d="M22.5979 37.5793C22.5979 38.2696 22.5979 38.8462 22.5979 39.6547C22.014 38.9811 21.5756 38.4754 21.0345 37.8513C21.4717 37.1655 21.935 36.4389 22.5979 35.399C22.5979 36.3321 22.5979 36.8988 22.5979 37.5793Z"
      fill="none" />
    <path
      d="M27.6952 18.2348C28.0326 16.8266 28.974 17.8293 29.6488 17.4906C29.6488 17.9889 29.6488 18.3488 29.6488 18.7668C28.9595 18.6175 28.3339 18.4819 27.6952 18.2348Z"
      fill="none" />
    <path
      d="M11.0882 17.5341C11.2882 17.8247 11.375 18.1045 11.4722 18.4176C10.7168 18.5338 10.1175 18.6261 9.45667 18.7279C9.45667 18.3599 9.45667 17.9989 9.45667 17.5234C9.97976 17.5234 10.4774 17.5234 11.0882 17.5341Z"
      fill="none" />
    <path
      d="M51.5017 31.7413C51.8232 32.3335 52.0285 32.9236 52.2907 33.6768C51.4079 33.6768 50.8073 33.6768 50.1105 33.6768C50.1105 33.1218 50.1105 32.5202 50.1105 31.7391C50.5082 31.7391 50.9469 31.7391 51.5017 31.7413Z"
      fill="#9E9E9E" />
    <path
      d="M50.3358 27.695C50.943 27.6808 51.4334 27.6808 51.9865 27.6808C51.9865 28.3779 51.9865 28.979 51.9865 29.644C51.3457 29.644 50.7446 29.644 49.9537 29.644C50.0476 28.9589 50.1332 28.334 50.3358 27.695Z"
      fill="#9E9E9E" />
    <path
      d="M47.6722 27.6949C47.8796 28.3048 47.9702 28.9005 48.0779 29.6089C47.3552 29.6089 46.7534 29.6089 46.0532 29.6089C46.0532 29.0727 46.0532 28.4722 46.0532 27.6808C46.5144 27.6808 47.0349 27.6808 47.6722 27.6949Z"
      fill="#9E9E9E" />
    <path
      d="M41.895 28.4587C42.1559 27.0429 43.1416 27.9608 43.8391 27.6075C43.8391 28.3323 43.8391 28.9336 43.8391 29.6217C43.2667 29.6217 42.6653 29.6217 41.9624 29.6217C41.9411 29.2931 41.9179 28.9348 41.895 28.4587Z"
      fill="#9E9E9E" />
    <path
      d="M50.1341 25.5273C50.0529 24.8724 50.0529 24.3006 50.0529 23.6719C50.7347 23.6719 51.336 23.6719 51.9941 23.6719C51.9941 24.2987 51.9941 24.8707 51.9941 25.6104C51.4191 25.6104 50.8172 25.6104 50.1341 25.5273Z"
      fill="#9E9E9E" />
    <path
      d="M45.9761 23.929C46.586 23.7216 47.1818 23.631 47.8901 23.5233C47.8901 24.2451 47.8901 24.8455 47.8901 25.548C47.3531 25.548 46.7512 25.548 45.962 25.548C45.962 25.0868 45.962 24.5663 45.9761 23.929Z"
      fill="#9E9E9E" />
    <path
      d="M42.6771 25.644C41.0663 25.4468 42.4361 24.3133 41.5072 23.7C42.5507 23.7 43.152 23.7 43.8401 23.7C43.8401 24.2724 43.8401 24.8737 43.8401 25.5766C43.5115 25.5979 43.1532 25.6211 42.6771 25.644Z"
      fill="#9E9E9E" />
    <path
      d="M41.8942 42.6535C41.8942 40.3348 41.8942 38.1427 41.8942 35.8763C42.5854 35.8763 43.1912 35.8763 43.8609 35.8763C43.8609 39.2223 43.8609 42.5384 43.8609 45.9058C43.2189 45.9058 42.6408 45.9058 41.8942 45.9058C41.8942 44.862 41.8942 43.821 41.8942 42.6535Z"
      fill="#9E9E9E" />
    <path
      d="M39.321 35.804C39.576 35.9279 39.8313 36.0485 39.8321 36.1708C39.8539 39.3996 39.8494 42.6286 39.8494 45.9064C39.1573 45.9064 38.5809 45.9064 37.9181 45.9064C37.9181 42.6014 37.9181 39.2966 37.9181 35.8016C38.3227 35.8016 38.7627 35.8016 39.321 35.804Z"
      fill="#9E9E9E" />
    <path
      d="M50.0232 40.4059C50.2711 40.1465 50.5117 39.8944 50.7629 39.8833C51.8044 39.8372 52.8491 39.8639 53.9872 39.8639C53.9872 40.5136 53.9872 41.1162 53.9872 41.8077C52.7589 41.8077 51.4822 41.8077 50.0208 41.8077C50.0208 41.4009 50.0208 40.9624 50.0232 40.4059Z"
      fill="#9E9E9E" />
    <path
      d="M52.7813 45.957C51.8216 45.957 50.9842 45.957 50.0848 45.957C50.0848 45.277 50.0848 44.6999 50.0848 44.0239C51.3358 44.0239 52.6208 44.0239 53.9946 44.0239C53.9946 44.594 53.9946 45.1995 53.9946 45.8935C53.6389 45.9142 53.2712 45.9356 52.7813 45.957Z"
      fill="#9E9E9E" />
  </g>
  <defs>
    <clipPath id="clip0_1_656">
      <rect width="65" height="65" fill="white" />
    </clipPath>
  </defs>
</svg>
